#tb 0: 200/2397
#media_type 0: video
#codec_id 0: rawvideo
#dimensions 0: 32x64
#sar 0: 0/1
0,          0,          0,        1,     3072, 0x9d4fa1a4
0,          1,          1,        1,     3072, 0x7e06de2f
0,          2,          2,        1,     3072, 0x0516327e
0,          3,          3,        1,     3072, 0x650f6ca6
0,          4,          4,        1,     3072, 0xe3b0c571
0,          5,          5,        1,     3072, 0x594e0371
0,          6,          6,        1,     3072, 0x38895875
0,          7,          7,        1,     3072, 0xedf59426
0,          8,          8,        1,     3072, 0x2468e64c
0,          9,          9,        1,     3072, 0x02520916
0,         10,         10,        1,     3072, 0x49ee129d
0,         11,         11,        1,     3072, 0x142d1482
0,         12,         12,        1,     3072, 0xa47b1535
0,         13,         13,        1,     3072, 0x8a9f1609
0,         14,         14,        1,     3072, 0x6ccb1587
0,         15,         15,        1,     3072, 0x13b915dd
0,         16,         16,        1,     3072, 0x92cd16ae
0,         17,         17,        1,     3072, 0x58f0161d
0,         18,         18,        1,     3072, 0x65e515c7
0,         19,         19,        1,     3072, 0x9f6a1617
0,         20,         20,        1,     3072, 0x3474150e
0,         21,         21,        1,     3072, 0x6a101500
0,         22,         22,        1,     3072, 0x9f1f152e
0,         23,         23,        1,     3072, 0xb07413a6
0,         24,         24,        1,     3072, 0x22f9138d
0,         25,         25,        1,     3072, 0xc1db13ef
0,         26,         26,        1,     3072, 0xc3161377
0,         27,         27,        1,     3072, 0xc74c148b
0,         28,         28,        1,     3072, 0x85e01693
0,         29,         29,        1,     3072, 0xd3f616af
0,         30,         30,        1,     3072, 0xd0571935
0,         31,         31,        1,     3072, 0xe49c1d00
0,         32,         32,        1,     3072, 0xf2b61e4f
0,         33,         33,        1,     3072, 0x92402139
0,         34,         34,        1,     3072, 0x897f26d2
0,         35,         35,        1,     3072, 0xccd528dd
0,         36,         36,        1,     3072, 0x7e9a2cc2
0,         37,         37,        1,     3072, 0xccf22f5a
0,         38,         38,        1,     3072, 0xa93931b9
0,         39,         39,        1,     3072, 0x2f9b36bc
0,         40,         40,        1,     3072, 0x6af63cf9
0,         41,         41,        1,     3072, 0x27ea41d6
0,         42,         42,        1,     3072, 0x54dc4667
0,         43,         43,        1,     3072, 0x75014d6f
0,         44,         44,        1,     3072, 0x383b51b2
0,         45,         45,        1,     3072, 0x61ec5782
0,         46,         46,        1,     3072, 0x3e6b5d7f
0,         47,         47,        1,     3072, 0xda8760d4
0,         48,         48,        1,     3072, 0x66686397
0,         49,         49,        1,     3072, 0x73716a8b
0,         50,         50,        1,     3072, 0x05db70bc
0,         51,         51,        1,     3072, 0xb6f47860
0,         52,         52,        1,     3072, 0x7e3e80bf
0,         53,         53,        1,     3072, 0x78fd8480
0,         54,         54,        1,     3072, 0x6d638a54
0,         55,         55,        1,     3072, 0xea4396b3
0,         56,         56,        1,     3072, 0x03689e2a
0,         57,         57,        1,     3072, 0x36b0a4a0
0,         58,         58,        1,     3072, 0x715ba7e6
0,         59,         59,        1,     3072, 0x314da5b8
0,         60,         60,        1,     3072, 0xb0559f6f
0,         61,         61,        1,     3072, 0xde5f98e1
0,         62,         62,        1,     3072, 0x3b9d9232
0,         63,         63,        1,     3072, 0x8fef8d6e
0,         64,         64,        1,     3072, 0xaa658629
0,         65,         65,        1,     3072, 0x21bf8160
0,         66,         66,        1,     3072, 0x098a7df1
0,         67,         67,        1,     3072, 0xc10778b8
0,         68,         68,        1,     3072, 0xa9a2746c
0,         69,         69,        1,     3072, 0x47207175
0,         70,         70,        1,     3072, 0xbd566d15
0,         71,         71,        1,     3072, 0x68536934
0,         72,         72,        1,     3072, 0xff2a64c8
0,         73,         73,        1,     3072, 0x560663f2
0,         74,         74,        1,     3072, 0xfcb360d0
0,         75,         75,        1,     3072, 0xf6c060a9
0,         76,         76,        1,     3072, 0x3f6d5f0f
0,         77,         77,        1,     3072, 0x81485d34
0,         78,         78,        1,     3072, 0x6c635bdb
0,         79,         79,        1,     3072, 0x57cf60b7
0,         80,         80,        1,     3072, 0xfe1e60af
0,         81,         81,        1,     3072, 0x15875f66
0,         82,         82,        1,     3072, 0xe2dd6621
0,         83,         83,        1,     3072, 0x7cfd7381
0,         84,         84,        1,     3072, 0xc161877b
0,         85,         85,        1,     3072, 0x7a50a37a
0,         86,         86,        1,     3072, 0x402bc704
0,         87,         87,        1,     3072, 0xc3bcc71f
0,         88,         88,        1,     3072, 0xe3efbf26
0,         89,         89,        1,     3072, 0xfd5db2a4
0,         90,         90,        1,     3072, 0x62bfa4e9
0,         91,         91,        1,     3072, 0xd25399cb
0,         92,         92,        1,     3072, 0x8c828de5
0,         93,         93,        1,     3072, 0x5d2483d5
0,         94,         94,        1,     3072, 0xb99a7bb7
0,         95,         95,        1,     3072, 0x4c6b743a
0,         96,         96,        1,     3072, 0x3a126af0
0,         97,         97,        1,     3072, 0x1bdc6589
0,         98,         98,        1,     3072, 0x88ec61a4
0,         99,         99,        1,     3072, 0x23c66059
0,        100,        100,        1,     3072, 0xdb675f24
0,        101,        101,        1,     3072, 0xbe1c5d6e
0,        102,        102,        1,     3072, 0xb6d15ba4
0,        103,        103,        1,     3072, 0x0ad3558c
0,        104,        104,        1,     3072, 0x65aa52ed
0,        105,        105,        1,     3072, 0x298c4d9f
0,        106,        106,        1,     3072, 0x277247c3
0,        107,        107,        1,     3072, 0x2d0541c6
0,        108,        108,        1,     3072, 0x5bd04050
0,        109,        109,        1,     3072, 0x88613dd3
0,        110,        110,        1,     3072, 0x83ee404a
0,        111,        111,        1,     3072, 0x802e3c82
0,        112,        112,        1,     3072, 0x71563605
0,        113,        113,        1,     3072, 0x58383036
0,        114,        114,        1,     3072, 0xa4822a59
0,        115,        115,        1,     3072, 0xcdcf2718
0,        116,        116,        1,     3072, 0xd94d253f
0,        117,        117,        1,     3072, 0x99232548
0,        118,        118,        1,     3072, 0x7b6f241a
0,        119,        119,        1,     3072, 0x44bd22f0
0,        120,        120,        1,     3072, 0x3f882092
0,        121,        121,        1,     3072, 0x96001c68
0,        122,        122,        1,     3072, 0xa59d17aa
0,        123,        123,        1,     3072, 0xd36110ea
0,        124,        124,        1,     3072, 0x391d0c3a
0,        125,        125,        1,     3072, 0x59e40943
0,        126,        126,        1,     3072, 0xb7f5079d
0,        127,        127,        1,     3072, 0x5cd60631
0,        128,        128,        1,     3072, 0x2ec20363
0,        129,        129,        1,     3072, 0xbde10030
0,        130,        130,        1,     3072, 0x4d37fe03
0,        131,        131,        1,     3072, 0x69e3fd2d
0,        132,        132,        1,     3072, 0x262efcbd
0,        133,        133,        1,     3072, 0x9e06fda7
0,        134,        134,        1,     3072, 0xcbc6fd9d
0,        135,        135,        1,     3072, 0x3465fd79
0,        136,        136,        1,     3072, 0x9692fd14
0,        137,        137,        1,     3072, 0xd6d6fceb
0,        138,        138,        1,     3072, 0x72eafcdd
0,        139,        139,        1,     3072, 0x4310fcc4
0,        140,        140,        1,     3072, 0x8b10fccb
0,        141,        141,        1,     3072, 0x30f96bff
0,        142,        142,        1,     3072, 0xe5b9d83c
0,        143,        143,        1,     3072, 0x0b1fd919
0,        144,        144,        1,     3072, 0xd346d813
0,        145,        145,        1,     3072, 0xe73fd6f6
0,        146,        146,        1,     3072, 0x6612f4d1
0,        147,        147,        1,     3072, 0x9874c583
0,        148,        148,        1,     3072, 0xcde3c709
0,        149,        149,        1,     3072, 0x275dcc64
0,        150,        150,        1,     3072, 0x4261d055
